<?xml version="1.0"?>
<svg xmlns="http://www.w3.org/2000/svg" height="64px" viewBox="0 0 512.0233 512" width="64px" class=""><g><path d="m511.640625 416.320312c-.070313-.527343-.1875-1.046874-.34375-1.554687v-.035156l-88.609375-201.386719h3.304688c13.914062.019531 26.953124-6.792969 34.890624-18.226562l49.578126-70.742188c2.246093-3.195312 2.035156-7.511719-.519532-10.472656-2.550781-2.964844-6.789062-3.8125-10.28125-2.0625l-76.289062 38.152344c-4.75 2.386718-9.988282 3.625-15.300782 3.621093h-107.792968c-4.492188-7.746093-10.929688-14.179687-18.671875-18.671875v-49.597656c-.042969-10.808594-6.875-20.425781-17.066407-24.027344v-44.238281h8.535157c4.710937 0 8.53125-3.820313 8.53125-8.53125 0-4.714844-3.820313-8.5351562-8.53125-8.5351562h-34.132813c-4.714844 0-8.535156 3.8203122-8.535156 8.5351562 0 4.710937 3.820312 8.53125 8.535156 8.53125h8.53125v44.238281c-10.191406 3.601563-17.023437 13.21875-17.066406 24.027344v49.597656c-7.742188 4.492188-14.179688 10.925782-18.671875 18.671875h-107.792969c-5.3125.003907-10.550781-1.234375-15.300781-3.621093l-76.285156-38.152344c-3.496094-1.75-7.734375-.902344-10.285157 2.0625-2.554687 2.960937-2.765624 7.277344-.519531 10.472656l49.542969 70.699219c7.9375 11.457031 20.992188 18.285156 34.929688 18.269531h3.300781l-88.601563 201.386719c-.160156.511719-.277344 1.039062-.339844 1.570312-.183593.582031-.3085932 1.179688-.3749995 1.785157v.058593c0 51.753907 45.9335935 93.867188 102.3984375 93.867188s102.398438-42.113281 102.398438-93.867188v-.050781c-.058594-.601562-.179688-1.195312-.355469-1.773438-.070313-.527343-.1875-1.046874-.34375-1.554687v-.035156l-88.617188-201.386719h102.460938c3.597656 4.011719 7.800781 7.429688 12.457031 10.140625v23.992187c.042969 10.8125 6.875 20.429688 17.066406 24.03125v18.636719c0 4.714844 3.820313 8.535157 8.535156 8.535157 4.710938 0 8.53125-3.820313 8.53125-8.535157v-18.636719c10.191407-3.601562 17.023438-13.21875 17.066407-24.03125v-23.992187c4.65625-2.710937 8.859375-6.128906 12.460937-10.140625h102.457032l-88.601563 201.386719c-.160156.511719-.273437 1.039062-.339844 1.570312-.175781.570313-.296875 1.15625-.359375 1.75v.09375c0 51.753907 45.9375 93.867188 102.402344 93.867188s102.398438-42.113281 102.398438-93.867188v-.050781c-.070313-.601562-.199219-1.195312-.382813-1.773438zm-182.820313-6.707031 72.253907-164.21875v164.21875zm89.320313-164.21875 72.25 164.21875h-72.25zm-162.132813-32.050781c-18.851562 0-34.136718-15.28125-34.136718-34.132812 0-18.851563 15.285156-34.132813 34.136718-34.132813 18.851563 0 34.132813 15.28125 34.132813 34.132813 0 18.851562-15.28125 34.132812-34.132813 34.132812zm-8.535156-128c0-4.710938 3.820313-8.53125 8.535156-8.53125 4.710938 0 8.53125 3.820312 8.53125 8.53125v43.4375c-5.640624-1.027344-11.421874-1.027344-17.066406 0zm-225.851562 324.269531 72.25-164.21875v164.21875zm89.320312-164.21875 72.25 164.21875h-72.25zm-8.535156 249.550781c-43.851562 0-80.078125-29.917968-84.804688-68.265624h169.609376c-4.726563 38.347656-40.953126 68.265624-84.804688 68.265624zm-16.382812-298.667968c-8.351563.007812-16.167969-4.085938-20.917969-10.957032l-30.230469-43.136718 46.136719 23.042968c7.113281 3.585938 14.964843 5.453126 22.929687 5.453126h101.632813c-1.53125 8.578124-.765625 17.410156 2.21875 25.597656zm178.515624 51.199218c0 4.714844-3.820312 8.535157-8.53125 8.535157-4.714843 0-8.535156-3.820313-8.535156-8.535157v-17.832031c5.644532 1.023438 11.425782 1.023438 17.066406 0zm41.898438-76.796874h101.632812c7.960938.007812 15.816407-1.847657 22.929688-5.421876l46.140625-23.039062-30.269531 43.179688c-4.75 6.835937-12.554688 10.902343-20.878906 10.878906h-121.773438c2.984375-8.1875 3.75-17.019532 2.21875-25.597656zm103.167969 324.265624c-43.851563 0-80.074219-29.917968-84.804688-68.265624h169.609375c-4.726562 38.347656-40.949218 68.265624-84.804687 68.265624zm0 0" data-original="#000000" class="active-path" data-old_color="#000000" fill="#287120"/><path d="m259.25 171.359375c-2.078125-.851563-4.410156-.851563-6.488281 0-1.03125.433594-1.984375 1.039063-2.8125 1.792969-1.558594 1.636718-2.441407 3.800781-2.476563 6.058594.015625.574218.070313 1.144531.171875 1.707031.09375.535156.265625 1.054687.511719 1.535156.1875.546875.445312 1.0625.765625 1.539063l1.027344 1.277343c.828125.753907 1.78125 1.359375 2.8125 1.792969 2.066406.910156 4.421875.910156 6.488281 0 1.03125-.433594 1.984375-1.039062 2.816406-1.792969.367188-.40625.707032-.832031 1.023438-1.277343.324218-.476563.582031-.992188.765625-1.539063.246093-.480469.421875-1 .511719-1.535156.101562-.5625.15625-1.132813.171874-1.707031-.03125-2.257813-.917968-4.421876-2.472656-6.058594-.832031-.753906-1.785156-1.359375-2.816406-1.792969zm0 0" data-original="#000000" class="active-path" data-old_color="#000000" fill="#287120"/><path d="m59.738281 443.746094h-8.53125c-4.714843 0-8.535156 3.820312-8.535156 8.53125 0 4.714844 3.820313 8.535156 8.535156 8.535156h8.53125c4.714844 0 8.535157-3.820312 8.535157-8.535156 0-4.710938-3.820313-8.53125-8.535157-8.53125zm0 0" data-original="#000000" class="active-path" data-old_color="#000000" fill="#287120"/><path d="m85.339844 452.277344c0 4.714844 3.820312 8.535156 8.53125 8.535156h51.203125c4.710937 0 8.53125-3.820312 8.53125-8.535156 0-4.710938-3.820313-8.53125-8.53125-8.53125h-51.203125c-4.710938 0-8.53125 3.820312-8.53125 8.53125zm0 0" data-original="#000000" class="active-path" data-old_color="#000000" fill="#287120"/><path d="m366.941406 443.746094h-8.535156c-4.710938 0-8.535156 3.820312-8.535156 8.53125 0 4.714844 3.824218 8.535156 8.535156 8.535156h8.535156c4.710938 0 8.53125-3.820312 8.53125-8.535156 0-4.710938-3.820312-8.53125-8.53125-8.53125zm0 0" data-original="#000000" class="active-path" data-old_color="#000000" fill="#287120"/><path d="m392.539062 452.277344c0 4.714844 3.820313 8.535156 8.535157 8.535156h51.199219c4.710937 0 8.53125-3.820312 8.53125-8.535156 0-4.710938-3.820313-8.53125-8.53125-8.53125h-51.199219c-4.714844 0-8.535157 3.820312-8.535157 8.53125zm0 0" data-original="#000000" class="active-path" data-old_color="#000000" fill="#287120"/></g> </svg>
