<?xml version="1.0"?>
<svg xmlns="http://www.w3.org/2000/svg" height="64px" viewBox="-51 0 512 512.00253" width="64px" class=""><g><path d="m28.460938 252.042969c-5.628907 8.121093-8.59375 17.796875-8.480469 27.679687.03125 9.65625 2.601562 19.132813 7.457031 27.480469 9.546875 17.472656 28.300781 27.890625 48.179688 26.757813-.109376 1.308593-.171876 2.628906-.171876 3.960937.007813 4.695313.730469 9.363281 2.144532 13.839844l-59.359375 76.382812c-4.464844 5.792969-4.738281 13.789063-.683594 19.875 4.054687 6.089844 11.535156 8.917969 18.605469 7.03125l52.171875-13.976562c4.574219-1.222657 9.273437 1.492187 10.503906 6.066406l14.011719 52.25c1.855468 7.070313 8.058594 12.140625 15.359375 12.550781h1.210937c6.933594.027344 13.183594-4.160156 15.796875-10.582031l38.953125-95.785156c12.515625 5.035156 26.441406 5.316406 39.152344.792969l38.671875 95.042968c2.574219 6.453125 8.851563 10.660156 15.796875 10.589844h1.125c7.378906-.363281 13.660156-5.484375 15.503906-12.636719l14.011719-52.265625c1.21875-4.546875 5.886719-7.25 10.4375-6.042968l52.199219 13.988281c7.085937 1.914062 14.601562-.917969 18.664062-7.027344 4.0625-6.113281 3.761719-14.136719-.746094-19.929687l-57.699218-74.121094c1.910156-5.132813 2.890625-10.566406 2.898437-16.042969 0-1.332031-.058593-2.652344-.167969-3.960937 19.871094 1.113281 38.617188-9.296876 48.167969-26.757813 4.863281-8.347656 7.4375-17.828125 7.46875-27.488281.109375-9.882813-2.855469-19.554688-8.484375-27.679688 17.5-9.265625 28.445313-27.441406 28.445313-47.242187s-10.945313-37.976563-28.445313-47.242188c10.882813-16.667969 11.273438-38.09375 1.007813-55.148437-9.59375-17.4375-28.324219-27.835938-48.195313-26.761719 1.117188-19.882813-9.292968-38.636719-26.761718-48.203125-17.121094-10.054688-38.433594-9.664062-55.175782 1.015625-9.257812-17.503906-27.4375-28.453125-47.242187-28.453125-19.800781 0-37.980469 10.949219-47.238281 28.453125-16.730469-10.667969-38.027344-11.066406-55.144532-1.023437-17.460937 9.5625-27.871094 28.308593-26.757812 48.1875-19.890625-1.097657-38.648438 9.320312-48.230469 26.785156-10.261719 17.054687-9.863281 38.476562 1.023437 55.140625-17.5 9.261719-28.445312 27.4375-28.445312 47.238281 0 19.796875 10.945312 37.972656 28.445312 47.234375zm100.882812 242.890625-13.976562-52.171875c-3.652344-13.679688-17.691407-21.824219-31.378907-18.199219l-52.230469 14 54.707032-70.398438c4.378906 5.644532 9.789062 10.402344 15.945312 14.027344 17.039063 10.257813 38.4375 9.871094 55.09375-.996094 2.78125 5.988282 6.820313 11.308594 11.835938 15.605469zm246.136719-56.320313-52.277344-14.011719c-6.558594-1.753906-13.546875-.832031-19.429687 2.566407-5.878907 3.398437-10.167969 8.992187-11.921876 15.550781l-14.027343 52.214844-39.375-96.648438c5.847656-4.519531 10.527343-10.371094 13.65625-17.066406 16.683593 10.878906 38.121093 11.253906 55.175781.964844 5.578125-3.242188 10.566406-7.40625 14.753906-12.3125l53.554688 68.742187zm-329.679688-267.945312c3.824219-.0625 7.136719-2.664063 8.109375-6.359375.976563-3.699219-.628906-7.59375-3.925781-9.527344-13.550781-7.980469-17.066406-27.660156-7.785156-43.820312 5.886719-10.925782 17.09375-17.941407 29.492187-18.457032 4.324219-.0625 8.585938 1.039063 12.339844 3.191406 3.332031 1.941407 7.554688 1.40625 10.296875-1.304687 2.742187-2.714844 3.324219-6.929687 1.417969-10.285156-7.839844-13.753907-1.015625-32.554688 15.199218-41.90625 5.75-3.359375 12.285157-5.140625 18.945313-5.164063 10.023437-.382812 19.503906 4.554688 24.933594 12.988282 1.953125 3.269531 5.839843 4.847656 9.519531 3.867187s6.265625-4.28125 6.335938-8.089844c1.804687-17.230469 16.933593-29.933593 34.21875-28.730469 17.226562-1.136718 32.265624 11.554688 34.046874 28.730469.050782 3.816407 2.628907 7.132813 6.316407 8.125 3.683593.992188 7.578125-.585937 9.539062-3.859375 5.417969-8.449218 14.902344-13.40625 24.933594-13.03125 6.660156.027344 13.195313 1.8125 18.945313 5.171875 16.210937 9.386719 23.039062 28.160157 15.195312 41.898438-1.90625 3.355469-1.324219 7.570312 1.421875 10.285156 2.742187 2.710937 6.960937 3.246094 10.296875 1.304687 3.75-2.152343 8.011719-3.253906 12.339844-3.191406 12.382812.515625 23.578125 7.519532 29.457031 18.429688 9.28125 16.214844 5.800781 35.894531-7.75 43.871094-3.269531 1.949218-4.855469 5.828124-3.886719 9.507812.972656 3.679688 4.261719 6.273438 8.066406 6.355469 17.230469 1.8125 29.925782 16.9375 28.726563 34.21875 1.132813 17.226562-11.554687 32.265625-28.726563 34.046875-3.820312.046875-7.144531 2.628906-8.136718 6.316406-.992188 3.691406.589844 7.59375 3.871094 9.546875 8.449218 5.417969 13.402343 14.898437 13.023437 24.925781-.027344 6.660156-1.8125 13.195313-5.171875 18.945313-9.34375 16.214843-28.160156 23.039062-41.890625 15.191406-3.355469-1.914063-7.574219-1.335937-10.292969 1.40625-2.71875 2.746094-3.25 6.972656-1.304687 10.308594 2.148437 3.757812 3.253906 8.019531 3.191406 12.347656-.039063 4.710937-1.167969 9.347656-3.300781 13.550781-3.363282 6.679688-8.628906 12.214844-15.128906 15.90625-16.214844 9.277344-35.910157 5.785156-43.871094-7.757812-1.945313-3.265625-5.816406-4.851563-9.496094-3.890625-3.675781.964843-6.273438 4.246093-6.367188 8.046875-.476562 10.105468-6.273437 19.199218-15.230468 23.894531-12.378906 6.675781-27.363282 6.304687-39.390625-.980469-8.109375-4.839844-13.238281-13.429687-13.644531-22.863281-.054688-3.828125-2.648438-7.152344-6.347657-8.132813-3.703125-.976562-7.601562.625-9.542969 3.925782-7.976562 13.558594-27.648437 17.066406-43.835937 7.785156-7.03125-4.003906-12.601563-10.148438-15.898437-17.539062-1.660157-3.765626-2.53125-7.832032-2.558594-11.945313-.058594-4.328125 1.042968-8.589844 3.191406-12.347656 1.949219-3.335938 1.414062-7.5625-1.304688-10.308594-2.714843-2.742187-6.9375-3.320313-10.292968-1.40625-13.753906 7.832031-32.554688.996094-41.898438-15.199219-3.355468-5.75-5.132812-12.28125-5.160156-18.9375-.390625-10.019531 4.550781-19.5 12.984375-24.925781 3.285156-1.953125 4.867187-5.855469 3.875-9.546875-.992187-3.6875-4.320313-6.269531-8.140625-6.316406-17.207031-1.835938-29.875-16.957032-28.671875-34.21875-1.132813-17.222656 11.554687-32.261719 28.722656-34.046875zm0 0" data-original="#000000" class="active-path" data-old_color="#000000" fill="#287120"/><path d="m204.8125 341.335938c75.40625 0 136.53125-61.128907 136.53125-136.535157s-61.125-136.53125-136.53125-136.53125-136.535156 61.125-136.535156 136.53125c.089844 75.371094 61.167968 136.445313 136.535156 136.535157zm0-256c65.980469 0 119.464844 53.484374 119.464844 119.464843s-53.484375 119.46875-119.464844 119.46875-119.46875-53.488281-119.46875-119.46875c.070312-65.949219 53.519531-119.394531 119.46875-119.464843zm0 0" data-original="#000000" class="active-path" data-old_color="#000000" fill="#287120"/><path d="m196.277344 298.667969c0 4.714843 3.820312 8.535156 8.535156 8.535156 56.527344-.0625 102.339844-45.871094 102.398438-102.402344 0-4.710937-3.820313-8.53125-8.53125-8.53125-4.714844 0-8.535157 3.820313-8.535157 8.53125-.050781 47.109375-38.226562 85.28125-85.332031 85.335938-4.714844 0-8.535156 3.820312-8.535156 8.53125zm0 0" data-original="#000000" class="active-path" data-old_color="#000000" fill="#287120"/><path d="m204.8125 119.46875c4.710938 0 8.53125-3.820312 8.53125-8.535156 0-4.710938-3.820312-8.53125-8.53125-8.53125-56.527344.058594-102.339844 45.871094-102.402344 102.398437 0 4.714844 3.824219 8.535157 8.535156 8.535157 4.710938 0 8.535157-3.820313 8.535157-8.535157.050781-47.105469 38.226562-85.28125 85.332031-85.332031zm0 0" data-original="#000000" class="active-path" data-old_color="#000000" fill="#287120"/><path d="m213.34375 145.070312c-.042969-.324218-.105469-.644531-.195312-.957031-.085938-1.167969-.460938-2.292969-1.089844-3.277343-.121094-.292969-.261719-.578126-.421875-.851563-.117188-.164063-.304688-.242187-.433594-.394531-.398437-.433594-.835937-.824219-1.3125-1.167969-1.328125-.957031-2.886719-1.546875-4.515625-1.707031-.195312 0-.367188-.113282-.5625-.113282-.3125.046876-.625.109376-.929688.191407-.582031.054687-1.152343.171875-1.707031.347656-.546875.195313-1.070312.449219-1.5625.75-.292969.121094-.578125.261719-.851562.417969l-34.136719 25.601562c-2.4375 1.828125-3.714844 4.820313-3.351562 7.847656.367187 3.027344 2.316406 5.628907 5.121093 6.828126 2.804688 1.195312 6.035157.804687 8.472657-1.023438l20.410156-15.425781v93.863281h-17.066406c-4.710938 0-8.53125 3.820312-8.53125 8.535156 0 4.710938 3.820312 8.535156 8.53125 8.535156h51.199218c4.714844 0 8.535156-3.824218 8.535156-8.535156 0-4.714844-3.820312-8.535156-8.535156-8.535156h-17.066406zm0 0" data-original="#000000" class="active-path" data-old_color="#000000" fill="#287120"/></g> </svg>
