<?xml version="1.0" encoding="iso-8859-1"?>
<!-- Generator: Adobe Illustrator 19.0.0, SVG Export Plug-In . SVG Version: 6.00 Build 0)  -->
<svg version="1.1" id="Capa_1" xmlns="http://www.w3.org/2000/svg" xmlns:xlink="http://www.w3.org/1999/xlink" x="0px" y="0px"
	 height="64px" width="64px" viewBox="0 0 512 512" style="enable-background:new 0 0 512 512;" xml:space="preserve">
<g>
	<path style="fill:#A5A5A4;" d="M512,35.31V476.69c0.002,9.366-3.717,18.348-10.34,24.971S486.055,512.002,476.69,512H35.31
		c-9.366,0.002-18.348-3.717-24.971-10.34S-0.002,486.055,0,476.69V123.586c-0.003-9.366,3.717-18.348,10.339-24.971
		S25.945,88.273,35.31,88.276h17.655V35.31c-0.003-9.366,3.717-18.348,10.339-24.971S78.91-0.003,88.276,0H476.69
		c9.366-0.003,18.348,3.717,24.971,10.339C508.283,16.962,512.003,25.945,512,35.31z"/>
	<path style="fill:#5E5F62;" d="M52.966,88.276v353.103c0,4.875-3.952,8.828-8.828,8.828s-8.828-3.952-8.828-8.828V88.276H52.966z"
		/>
	<path style="fill:#3F5C6C;" d="M282.483,26.483c-39.003,0-70.621,31.618-70.621,70.621s31.618,70.621,70.621,70.621
		s70.621-31.618,70.621-70.621C353.059,58.119,321.467,26.527,282.483,26.483z M282.483,150.069
		c-4.295,0-10.996-9.751-14.782-26.483h29.566C293.48,140.318,286.778,150.069,282.483,150.069z M265.207,105.931
		c-0.19-2.864-0.38-5.731-0.38-8.828c0-3.096,0.19-5.964,0.38-8.828h34.551c0.19,2.864,0.38,5.731,0.38,8.828
		c0,3.096-0.19,5.964-0.38,8.828H265.207z M229.517,97.103c0.018-2.96,0.285-5.913,0.797-8.828h17.145
		c-0.171,2.934-0.288,5.878-0.288,8.828s0.116,5.894,0.288,8.828h-17.145C229.802,103.016,229.535,100.063,229.517,97.103z
		 M282.483,44.138c4.295,0,10.997,9.751,14.783,26.483H267.7C271.487,53.888,278.188,44.138,282.483,44.138z M317.505,88.276h17.145
		c1.063,5.837,1.063,11.818,0,17.655h-17.145c0.171-2.934,0.288-5.878,0.288-8.828S317.677,91.21,317.505,88.276z M328.282,70.621
		h-12.879c-1.15-6.333-2.887-12.545-5.188-18.557C317.673,56.669,323.878,63.043,328.282,70.621z M254.75,52.064
		c-2.301,6.011-4.038,12.224-5.188,18.557h-12.879C241.087,63.043,247.293,56.669,254.75,52.064z M236.683,123.586h12.879
		c1.15,6.333,2.886,12.545,5.188,18.557C247.293,137.538,241.087,131.164,236.683,123.586z M310.216,142.143
		c2.301-6.011,4.038-12.224,5.188-18.557h12.879C323.878,131.164,317.673,137.538,310.216,142.143z"/>
	<g>
		<path style="fill:#5E5F62;" d="M185.379,105.931H97.103c-4.875,0-8.828-3.952-8.828-8.828s3.952-8.828,8.828-8.828h88.276
			c4.875,0,8.828,3.952,8.828,8.828S190.255,105.931,185.379,105.931z"/>
		<path style="fill:#5E5F62;" d="M194.207,141.241H97.103c-4.875,0-8.828-3.952-8.828-8.828c0-4.875,3.952-8.828,8.828-8.828h97.103
			c4.875,0,8.828,3.952,8.828,8.828C203.034,137.289,199.082,141.241,194.207,141.241z"/>
		<path style="fill:#5E5F62;" d="M467.862,141.241h-97.103c-4.875,0-8.828-3.952-8.828-8.828c0-4.875,3.952-8.828,8.828-8.828
			h97.103c4.875,0,8.828,3.952,8.828,8.828C476.69,137.289,472.737,141.241,467.862,141.241z"/>
		<path style="fill:#5E5F62;" d="M467.862,105.931h-88.276c-4.875,0-8.828-3.952-8.828-8.828s3.952-8.828,8.828-8.828h88.276
			c4.875,0,8.828,3.952,8.828,8.828S472.737,105.931,467.862,105.931z"/>
	</g>
	<path style="fill:#B0D3F0;" d="M476.69,211.862v17.655h-35.31v17.655h-52.966v17.655h-35.31v-35.31h-35.31v52.966h-70.621v-52.966
		h-35.31v35.31h-35.31v-35.31h-35.31V256H88.276v-44.138c0.028-9.739,7.916-17.627,17.655-17.655h353.103
		C468.773,194.235,476.661,202.123,476.69,211.862z"/>
	<path style="fill:#3F5C6C;" d="M476.69,229.517v70.621c-0.029,9.739-7.916,17.626-17.655,17.655H105.931
		c-9.739-0.029-17.627-7.916-17.655-17.655V256h52.966v-26.483h35.31v35.31h35.31v-35.31h35.31v52.966h70.621v-52.966h35.31v35.31
		h35.31v-17.655h52.966v-17.655H476.69z"/>
	<g>
		<path style="fill:#5E5F62;" d="M158.897,370.759H88.276c-4.875,0-8.828-3.952-8.828-8.828s3.952-8.828,8.828-8.828h70.621
			c4.875,0,8.828,3.952,8.828,8.828S163.772,370.759,158.897,370.759z"/>
		<path style="fill:#5E5F62;" d="M158.897,406.069H88.276c-4.875,0-8.828-3.952-8.828-8.828c0-4.875,3.952-8.828,8.828-8.828h70.621
			c4.875,0,8.828,3.952,8.828,8.828C167.724,402.117,163.772,406.069,158.897,406.069z"/>
		<path style="fill:#5E5F62;" d="M158.897,441.379H88.276c-4.875,0-8.828-3.952-8.828-8.828s3.952-8.828,8.828-8.828h70.621
			c4.875,0,8.828,3.952,8.828,8.828S163.772,441.379,158.897,441.379z"/>
		<path style="fill:#5E5F62;" d="M158.897,476.69H88.276c-4.875,0-8.828-3.952-8.828-8.828s3.952-8.828,8.828-8.828h70.621
			c4.875,0,8.828,3.952,8.828,8.828S163.772,476.69,158.897,476.69z"/>
		<path style="fill:#5E5F62;" d="M264.828,370.759h-70.621c-4.875,0-8.828-3.952-8.828-8.828s3.952-8.828,8.828-8.828h70.621
			c4.875,0,8.828,3.952,8.828,8.828S269.703,370.759,264.828,370.759z"/>
		<path style="fill:#5E5F62;" d="M264.828,406.069h-70.621c-4.875,0-8.828-3.952-8.828-8.828c0-4.875,3.952-8.828,8.828-8.828
			h70.621c4.875,0,8.828,3.952,8.828,8.828C273.655,402.117,269.703,406.069,264.828,406.069z"/>
		<path style="fill:#5E5F62;" d="M264.828,441.379h-70.621c-4.875,0-8.828-3.952-8.828-8.828s3.952-8.828,8.828-8.828h70.621
			c4.875,0,8.828,3.952,8.828,8.828S269.703,441.379,264.828,441.379z"/>
		<path style="fill:#5E5F62;" d="M264.828,476.69h-70.621c-4.875,0-8.828-3.952-8.828-8.828s3.952-8.828,8.828-8.828h70.621
			c4.875,0,8.828,3.952,8.828,8.828S269.703,476.69,264.828,476.69z"/>
		<path style="fill:#5E5F62;" d="M370.759,370.759h-70.621c-4.875,0-8.828-3.952-8.828-8.828s3.952-8.828,8.828-8.828h70.621
			c4.875,0,8.828,3.952,8.828,8.828S375.634,370.759,370.759,370.759z"/>
		<path style="fill:#5E5F62;" d="M370.759,406.069h-70.621c-4.875,0-8.828-3.952-8.828-8.828c0-4.875,3.952-8.828,8.828-8.828
			h70.621c4.875,0,8.828,3.952,8.828,8.828C379.586,402.117,375.634,406.069,370.759,406.069z"/>
		<path style="fill:#5E5F62;" d="M370.759,441.379h-70.621c-4.875,0-8.828-3.952-8.828-8.828s3.952-8.828,8.828-8.828h70.621
			c4.875,0,8.828,3.952,8.828,8.828S375.634,441.379,370.759,441.379z"/>
		<path style="fill:#5E5F62;" d="M370.759,476.69h-70.621c-4.875,0-8.828-3.952-8.828-8.828s3.952-8.828,8.828-8.828h70.621
			c4.875,0,8.828,3.952,8.828,8.828S375.634,476.69,370.759,476.69z"/>
		<path style="fill:#5E5F62;" d="M476.69,370.759h-70.621c-4.875,0-8.828-3.952-8.828-8.828s3.952-8.828,8.828-8.828h70.621
			c4.875,0,8.828,3.952,8.828,8.828S481.565,370.759,476.69,370.759z"/>
		<path style="fill:#5E5F62;" d="M476.69,406.069h-70.621c-4.875,0-8.828-3.952-8.828-8.828c0-4.875,3.952-8.828,8.828-8.828h70.621
			c4.875,0,8.828,3.952,8.828,8.828C485.517,402.117,481.565,406.069,476.69,406.069z"/>
		<path style="fill:#5E5F62;" d="M476.69,441.379h-70.621c-4.875,0-8.828-3.952-8.828-8.828s3.952-8.828,8.828-8.828h70.621
			c4.875,0,8.828,3.952,8.828,8.828S481.565,441.379,476.69,441.379z"/>
		<path style="fill:#5E5F62;" d="M476.69,476.69h-70.621c-4.875,0-8.828-3.952-8.828-8.828s3.952-8.828,8.828-8.828h70.621
			c4.875,0,8.828,3.952,8.828,8.828S481.565,476.69,476.69,476.69z"/>
	</g>
</g>
<g>
</g>
<g>
</g>
<g>
</g>
<g>
</g>
<g>
</g>
<g>
</g>
<g>
</g>
<g>
</g>
<g>
</g>
<g>
</g>
<g>
</g>
<g>
</g>
<g>
</g>
<g>
</g>
<g>
</g>
</svg>
