<?xml version="1.0"?>
<svg xmlns="http://www.w3.org/2000/svg" height="64px" viewBox="0 0 512 512" width="64px" class=""><g><path d="m462.339844 211.753906c-9.65625-9.875-22.875-15.457031-36.683594-15.488281h-127.054688v-153.597656c0-23.566407-19.101562-42.667969-42.667968-42.667969-23.5625 0-42.664063 19.101562-42.664063 42.667969v17.066406h-127.054687c-13.8125.027344-27.035156 5.609375-36.691406 15.488281l-43.257813 44.449219c-8.46875 9.816406-8.339844 24.394531.308594 34.054687l42.957031 44.117188c9.652344 9.878906 22.871094 15.460938 36.683594 15.488281h127.054687v247.46875h-76.800781c-18.851562 0-34.132812 15.28125-34.132812 34.132813 0 9.425781 7.640624 17.066406 17.066406 17.066406h273.066406c9.425781 0 17.066406-7.640625 17.066406-17.066406 0-18.851563-15.28125-34.132813-34.132812-34.132813h-76.800782v-110.933593h127.054688c13.8125-.027344 27.035156-5.609376 36.691406-15.488282l43.265625-44.449218c8.46875-9.816407 8.339844-24.394532-.308593-34.058594zm-376.125-15.488281c-9.207032-.023437-18.023438-3.742187-24.464844-10.324219l-42.667969-43.785156c-2.722656-3.085938-2.855469-7.675781-.3125-10.914062l42.945313-44.117188c6.449218-6.589844 15.277344-10.3125 24.5-10.324219h127.054687v119.464844zm306.253906 298.667969h-273.066406c0-9.425782 7.640625-17.066406 17.066406-17.066406h238.933594c9.425781 0 17.066406 7.640624 17.066406 17.066406zm-128-34.132813v-153.601562c0-4.710938-3.820312-8.53125-8.535156-8.53125-4.710938 0-8.53125 3.820312-8.53125 8.53125v153.601562h-17.066406v-418.132812c.042968-10.8125 6.875-20.429688 17.066406-24.03125v92.296875c0 4.710937 3.820312 8.53125 8.53125 8.53125 4.714844 0 8.535156-3.820313 8.535156-8.53125v-92.296875c10.191406 3.601562 17.019531 13.21875 17.066406 24.03125v418.132812zm228.597656-182.445312-42.945312 44.121093c-6.441406 6.582032-15.257813 10.300782-24.464844 10.324219h-127.054688v-119.46875h127.054688c9.207031.023438 18.023438 3.742188 24.464844 10.328125l42.664062 43.78125c2.714844 3.097656 2.832032 7.6875.28125 10.914063zm0 0" data-original="#000000" class="active-path" data-old_color="#000000" fill="#287120"/><path d="m187.667969 93.867188h-102.398438c-4.714843 0-8.535156 3.820312-8.535156 8.53125 0 4.714843 3.820313 8.535156 8.535156 8.535156h102.398438c4.714843 0 8.535156-3.820313 8.535156-8.535156 0-4.710938-3.820313-8.53125-8.535156-8.53125zm0 0" data-original="#000000" class="active-path" data-old_color="#000000" fill="#287120"/><path d="m187.667969 128h-102.398438c-4.714843 0-8.535156 3.820312-8.535156 8.535156 0 4.710938 3.820313 8.53125 8.535156 8.53125h102.398438c4.714843 0 8.535156-3.820312 8.535156-8.53125 0-4.714844-3.820313-8.535156-8.535156-8.535156zm0 0" data-original="#000000" class="active-path" data-old_color="#000000" fill="#287120"/><path d="m187.667969 162.132812h-102.398438c-4.714843 0-8.535156 3.820313-8.535156 8.535157 0 4.710937 3.820313 8.53125 8.535156 8.53125h102.398438c4.714843 0 8.535156-3.820313 8.535156-8.53125 0-4.714844-3.820313-8.535157-8.535156-8.535157zm0 0" data-original="#000000" class="active-path" data-old_color="#000000" fill="#287120"/><path d="m426.601562 230.398438h-102.398437c-4.714844 0-8.535156 3.820312-8.535156 8.535156 0 4.710937 3.820312 8.53125 8.535156 8.53125h102.398437c4.710938 0 8.535157-3.820313 8.535157-8.53125 0-4.714844-3.824219-8.535156-8.535157-8.535156zm0 0" data-original="#000000" class="active-path" data-old_color="#000000" fill="#287120"/><path d="m426.601562 264.535156h-102.398437c-4.714844 0-8.535156 3.820313-8.535156 8.53125 0 4.714844 3.820312 8.535156 8.535156 8.535156h102.398437c4.710938 0 8.535157-3.820312 8.535157-8.535156 0-4.710937-3.824219-8.53125-8.535157-8.53125zm0 0" data-original="#000000" class="active-path" data-old_color="#000000" fill="#287120"/><path d="m426.601562 298.667969h-102.398437c-4.714844 0-8.535156 3.820312-8.535156 8.53125 0 4.714843 3.820312 8.535156 8.535156 8.535156h102.398437c4.710938 0 8.535157-3.820313 8.535157-8.535156 0-4.710938-3.824219-8.53125-8.535157-8.53125zm0 0" data-original="#000000" class="active-path" data-old_color="#000000" fill="#287120"/></g> </svg>
